# xmcd CD database file generated by MAGIX_Freedb v0.9beta0
# 
# Track frame offsets:
#      150
#      22349
#      41099
#      58041
#      77950
#      98069
#      110615
#      125645
#      141009
#      160337
#      170685
#      183702
# 
# Disc length: 2715 seconds
# 
# Revision: 0 
# Processed by: cddbd v1.5.1PL0 Copyright (c) Steve Scherf et al.
# Submitted via: MAGIX_Freedb v0.9beta0
# 
DISCID=b10a990c
DTITLE=Larry Schuba and Western Union - Meer der Ruhe
DYEAR=2002
DGENRE=
TTITLE0=Vier Kerzen
TTITLE1=Hundert Lichter
TTITLE2=Meer der Ruhe
TTITLE3=Der Nikolaus kann kommen
TTITLE4=Kleine Finger - kleine Hände
TTITLE5=Wertheim - Ecke Ku´damm
TTITLE6=Herbsttraurigkeit
TTITLE7=König dieser Welt
TTITLE8=Sternenlied
TTITLE9=X - mas Swing ( Instrumental )
TTITLE10=Nicht nur in dieser Nacht
TTITLE11=Weihnachtsdokument
EXTD=
EXTT0=
EXTT1=
EXTT2=
EXTT3=
EXTT4=
EXTT5=
EXTT6=
EXTT7=
EXTT8=
EXTT9=
EXTT10=
EXTT11=
PLAYORDER=
